#!OML:ASF I:\golf\golf\golf 2\Subject 1\2002-09-07\Subject1.ASF
:FULLY-SPECIFIED
:DEGREES
170
root -5.89992 17.7973 2.01798 -7.31136 69.1761 -23.6016
lowerback 5.01007 -0.187974 -7.50134
upperback 4.49613 -0.433597 2.42426
thorax 1.95673 -0.420353 6.7746
lowerneck -14.3556 6.65043 2.83948
upperneck 35.1247 13.8067 -9.14198
head 15.7799 5.29469 -1.82199
rclavicle 2.46493e-014 1.43125e-014
rhumerus -13.4949 2.54448 -99.2377
rradius 49.3075
rwrist -56.9654
rhand -42.4211 -6.0478
rfingers 7.12502
rthumb -15.3008 -35.4618
lclavicle 2.46493e-014 1.43125e-014
lhumerus 26.1845 -77.4104 73.6037
lradius 25.9884
lwrist 27.6694
lhand 10.6835 51.0337
lfingers 7.12502
lthumb -144.226 -102.595
rfemur -32.88 8.28604 16.7949
rtibia 28.9269
rfoot -8.54459 1.66808
rtoes -1.11039
lfemur -24.9733 15.1723 -5.07636
ltibia 34.4877
lfoot -13.6874 8.71339
ltoes -20.4698
171
root -5.89996 17.7972 2.03375 -7.18753 68.5107 -23.3595
lowerback 5.03381 -0.441223 -7.70286
upperback 4.58927 -0.774421 2.32327
thorax 2.10445 -0.604195 6.79269
lowerneck -14.2204 7.09373 2.79299
upperneck 34.7742 14.4607 -9.29018
head 15.6501 5.54932 -1.75427
rclavicle -2.8625e-014 -4.29375e-014
rhumerus -13.484 2.29219 -99.0247
rradius 50.4611
rwrist -57.0397
rhand -43.313 -5.5225
rfingers 7.12502
rthumb -16.1598 -34.8689
lclavicle -2.8625e-014 -4.29375e-014
lhumerus 28.5532 -76.9999 71.7539
lradius 25.7639
lwrist 25.9157
lhand 10.2183 49.6759
lfingers 7.12502
lthumb -144.667 -103.847
rfemur -32.7831 8.45374 17.049
rtibia 28.8322
rfoot -8.55763 2.20923
rtoes -2.35855
lfemur -24.5725 15.3736 -4.85149
ltibia 34.5425
lfoot -13.7157 9.07312
ltoes -19.81
172
root -5.90305 17.794 2.06589 -6.81896 67.6074 -23.015
lowerback 4.83448 -0.575023 -8.17485
upperback 4.60834 -0.952449 2.24494
thorax 2.28064 -0.715054 6.98173
lowerneck -13.9863 7.50781 2.9127
upperneck 34.4277 15.0271 -9.45561
head 15.5095 5.79368 -1.74299
rclavicle 2.46493e-014 3.18055e-015
rhumerus -13.496 1.94449 -98.7029
rradius 51.7162
rwrist -57.1758
rhand -44.4857 -4.83421
rfingers 7.12502
rthumb -17.2887 -34.0852
lclavicle 2.46493e-014 3.18055e-015
lhumerus 31.3537 -76.8821 69.4181
lradius 25.6816
lwrist 24.3519
lhand 9.25212 48.5031
lfingers 7.12502
lthumb -145.583 -104.807
rfemur -32.8595 9.01705 17.2703
rtibia 28.7398
rfoot -8.55141 2.55006
rtoes -2.67349
lfemur -24.4321 16.3829 -4.81582
ltibia 34.6251
lfoot -13.0178 9.93692
ltoes -24.5247
173
root -5.90619 17.79 2.08575 -6.74197 66.9501 -22.9294
lowerback 4.77721 -1.04088 -8.56254
upperback 4.72849 -1.57618 2.39652
thorax 2.57728 -1.06043 7.3763
lowerneck -14.0047 8.13034 2.40014
upperneck 33.9175 16.0863 -9.71174
head 15.354 6.14694 -1.55828
rclavicle 1.03368e-014 3.02153e-014
rhumerus -13.3167 2.83734 -98.1281
rradius 52.9572
rwrist -57.4237
rhand -45.8813 -3.97323
rfingers 7.12502
rthumb -18.6315 -33.101
lclavicle 1.03368e-014 3.02153e-014
lhumerus 33.2811 -75.7388 68.1804
lradius 25.4219
lwrist 22.8046
lhand 8.67799 48.3026
lfingers 7.12502
lthumb -146.129 -104.885
rfemur -32.8699 9.4152 17.4893
rtibia 28.6609
rfoot -8.4677 2.82095
rtoes -1.04665
lfemur -24.1782 16.6461 -4.53298
ltibia 34.7253
lfoot -13.0425 10.2558
ltoes -24.4564
174
root -5.90498 17.7934 2.11803 -6.62119 66.1265 -22.7142
lowerback 4.74827 -1.77169 -9.22678
upperback 5.05278 -2.55665 2.84363
thorax 3.19719 -1.62669 8.24368
lowerneck -14.7344 9.08364 0.690168
upperneck 33.3842 17.9072 -9.75734
head 15.2667 6.6661 -0.917386
rclavicle 1.98785e-014 -1.43125e-014
rhumerus -12.8267 5.08524 -97.4048
rradius 54.2328
rwrist -57.5416
rhand -47.3029 -3.38466
rfingers 7.12502
rthumb -19.9985 -32.3756
lclavicle 1.98785e-014 -1.43125e-014
lhumerus 33.7044 -73.0169 68.7827
lradius 24.8161
lwrist 20.7477
lhand 8.4002 47.8132
lfingers 7.12502
lthumb -146.393 -105.317
rfemur -32.7655 9.90059 17.7687
rtibia 28.5834
rfoot -8.44237 3.2153
rtoes -0.230738
lfemur -23.501 16.6673 -3.96835
ltibia 34.8168
lfoot -13.9745 9.88026
ltoes -19.42
